<svg id="Layer_1" data-name="Layer 1" xmlns="http://www.w3.org/2000/svg" viewBox="0 0 229.96 378.76"><defs><style>.cls-1{fill:#fff;}.cls-2{fill:#4652a4;}</style></defs><title>Golden_Purple_101317</title><polygon class="cls-1" points="4.05 375.76 114.98 10.33 225.91 375.76 4.05 375.76"/><path class="cls-2" d="M250,80l106.89,352.1H143.11L250,80m0-20.66L135,438.13H365L250,59.37Z" transform="translate(-135.02 -59.37)"/><polygon class="cls-1" points="4.05 375.76 114.98 10.33 225.91 375.76 4.05 375.76"/><path class="cls-2" d="M250,80l106.89,352.1H143.11L250,80m0-20.66L135,438.13H365L250,59.37Z" transform="translate(-135.02 -59.37)"/><polygon class="cls-1" points="4.05 375.76 41.23 253.9 220.22 375.76 4.05 375.76"/><path class="cls-2" d="M177.93,318,345.51,432.13H143.12L177.93,318m-3.36-9.55L135,438.13H365L174.57,308.5Z" transform="translate(-135.02 -59.37)"/><polygon class="cls-1" points="41.23 253.91 99.5 293.79 5.75 370.21 41.23 253.91"/><path class="cls-2" d="M177.92,318.06l51.6,35.31-83,67.65,31.41-103m-3.35-9.57L135,438.13,239.53,353l-65-44.45Z" transform="translate(-135.02 -59.37)"/><polygon class="cls-1" points="46.62 257.77 99.49 293.79 70.62 317.23 46.62 257.77"/><path class="cls-2" d="M188.12,325.19l41.37,28.19L206.9,371.71l-18.78-46.52m-13-16.1,29.23,72.4L239.53,353l-64.38-43.86Z" transform="translate(-135.02 -59.37)"/></svg>